<?xml version="1.0" encoding="UTF-8" standalone="no"?>
<svg
   width="182.40199"
   zoomAndPan="magnify"
   viewBox="0 0 136.8015 136.80149"
   height="182.40199"
   preserveAspectRatio="xMidYMid"
   version="1.0"
   id="svg249"
   sodipodi:docname="ritmo-astral-responsive.svg"
   inkscape:version="1.2.2 (b0a84865, 2022-12-01)"
   xmlns:inkscape="http://www.inkscape.org/namespaces/inkscape"
   xmlns:sodipodi="http://sodipodi.sourceforge.net/DTD/sodipodi-0.dtd"
   xmlns="http://www.w3.org/2000/svg"
   xmlns:svg="http://www.w3.org/2000/svg">
  <sodipodi:namedview
     id="namedview251"
     pagecolor="#505050"
     bordercolor="#ffffff"
     borderopacity="1"
     inkscape:showpageshadow="0"
     inkscape:pageopacity="0"
     inkscape:pagecheckerboard="1"
     inkscape:deskcolor="#505050"
     showgrid="false"
     inkscape:zoom="0.31153766"
     inkscape:cx="-828.15029"
     inkscape:cy="189.38321"
     inkscape:window-width="1309"
     inkscape:window-height="456"
     inkscape:window-x="0"
     inkscape:window-y="25"
     inkscape:window-maximized="0"
     inkscape:current-layer="svg249" />
  <defs
     id="defs137">
    <g
       id="g132" />
    <clipPath
       id="5065443e49">
      <path
         d="M 0.199219,0 H 809.80078 V 1012 H 0.199219 Z m 0,0"
         clip-rule="nonzero"
         id="path134" />
    </clipPath>
  </defs>
  <g
     id="g983"
     transform="translate(14.044972,-1.75e-5)">
    <g
       fill="#dff4fa"
       fill-opacity="1"
       id="g223"
       transform="translate(-521.14741,-524.85207)">
      <g
         transform="translate(521.74958,648.5552)"
         id="g221">
        <g
           id="g219">
          <path
             d="M 13.359375,0 H 2.46875 l 42.1875,-117.89063 -2.59375,-5.8125 h 10.875 L 108.10938,0 H 97.234375 l -9.03125,-20.15625 c -1.492187,-3.382812 -3.679687,-6.4375 -6.5625,-9.15625 -2.886719,-2.726562 -6.148437,-5.039062 -9.78125,-6.9375 -3.625,-1.894531 -7.375,-3.335938 -11.25,-4.328125 -3.875,-0.988281 -7.542969,-1.484375 -11,-1.484375 -3.960937,0 -7.859375,0.621094 -11.703125,1.859375 -3.835938,1.242187 -7.5625,3.179687 -11.1875,5.8125 -1.324219,0.992187 -2.648438,2.621094 -3.96875,4.890625 -1.3125,2.273438 -2.257812,4.398438 -2.828125,6.375 z M 26.84375,-46.890625 c -0.574219,2.230469 -0.367188,3.34375 0.625,3.34375 0.488281,0 1.394531,-0.328125 2.71875,-0.984375 2.46875,-1.40625 5.019531,-2.414062 7.65625,-3.03125 2.644531,-0.613281 5.328125,-0.921875 8.046875,-0.921875 5.851563,0 11.625,1.242187 17.3125,3.71875 5.695313,2.46875 10.894531,5.640625 15.59375,9.515625 1.40625,1.148438 2.289063,1.578125 2.65625,1.296875 0.375,-0.289063 0.191406,-1.257813 -0.546875,-2.90625 L 48.984375,-108.35938 c -0.742187,-1.73828 -1.523437,-2.60937 -2.34375,-2.60937 -0.824219,0 -1.570313,0.99219 -2.234375,2.96875 z m 0,0"
             id="path217" />
        </g>
      </g>
    </g>
    <g
       fill="#dff4fa"
       fill-opacity="1"
       id="g239"
       transform="translate(-521.14741,-524.85207)">
      <g
         transform="translate(629.25679,537.95047)"
         id="g237">
        <g
           id="g235">
          <path
             d="M -13.359375,0 H -2.46875 l -42.1875,117.89063 2.59375,5.8125 h -10.875 L -108.10938,0 h 10.875005 l 9.03125,20.15625 c 1.492187,3.382812 3.679687,6.4375 6.5625,9.15625 2.886719,2.726562 6.148437,5.039062 9.78125,6.9375 3.625,1.894531 7.375,3.335938 11.25,4.328125 3.875,0.988281 7.542969,1.484375 11,1.484375 3.960937,0 7.859375,-0.621094 11.703125,-1.859375 3.835938,-1.242187 7.5625,-3.179687 11.1875,-5.8125 1.324219,-0.992187 2.648438,-2.621094 3.96875,-4.890625 1.3125,-2.273438 2.257812,-4.398438 2.828125,-6.375 z M -26.84375,46.890625 c 0.574219,-2.230469 0.367188,-3.34375 -0.625,-3.34375 -0.488281,0 -1.394531,0.328125 -2.71875,0.984375 -2.46875,1.40625 -5.019531,2.414062 -7.65625,3.03125 -2.644531,0.613281 -5.328125,0.921875 -8.046875,0.921875 -5.851563,0 -11.625,-1.242187 -17.3125,-3.71875 -5.695313,-2.46875 -10.894531,-5.640625 -15.59375,-9.515625 -1.40625,-1.148438 -2.289063,-1.578125 -2.65625,-1.296875 -0.375,0.289063 -0.191406,1.257813 0.546875,2.90625 l 31.921875,71.500005 c 0.742187,1.73828 1.523437,2.60937 2.34375,2.60937 0.824219,0 1.570313,-0.99219 2.234375,-2.96875 z m 0,0"
             id="path233" />
        </g>
      </g>
    </g>
  </g>
</svg>
